HIERARCHY
ROOT Hips
{
	OFFSET 0.000000 100.481300 0.000000
	CHANNELS 6 Xposition Yposition Zposition Xrotation Yrotation Zrotation
	JOINT Spine
	{
		OFFSET -0.279200 12.230698 -2.892100
		CHANNELS 3 Xrotation Yrotation Zrotation
		JOINT Spine1
		{
			OFFSET -0.325700 14.269203 -3.374200
			CHANNELS 3 Xrotation Yrotation Zrotation
			JOINT Spine2
			{
				OFFSET -0.372300 16.307602 -0.352600
				CHANNELS 3 Xrotation Yrotation Zrotation
				JOINT Neck
				{
					OFFSET -0.418800 17.814194 8.416900
					CHANNELS 3 Xrotation Yrotation Zrotation
					JOINT Head
					{
						OFFSET 0.000000 7.031097 3.806800
						CHANNELS 3 Xrotation Yrotation Zrotation
						JOINT HeadTop_End
						{
							OFFSET 0.000000 24.646606 12.978600
							CHANNELS 3 Xrotation Yrotation Zrotation
							End Site
							{
								OFFSET 0.000000 27.854965 0.000000
							}
						}
					}
				}
				JOINT LeftShoulder
				{
					OFFSET 16.952999 14.495407 -7.737500
					CHANNELS 3 Xrotation Yrotation Zrotation
					JOINT LeftArm
					{
						OFFSET 9.308998 -2.777710 0.208600
						CHANNELS 3 Xrotation Yrotation Zrotation
						JOINT LeftForeArm
						{
							OFFSET 29.972298 0.000000 0.000000
							CHANNELS 3 Xrotation Yrotation Zrotation
							JOINT LeftHand
							{
								OFFSET 26.026505 0.000000 0.000000
								CHANNELS 3 Xrotation Yrotation Zrotation
								JOINT LeftHandThumb1
								{
									OFFSET 12.240501 -7.147949 9.207150
									CHANNELS 3 Xrotation Yrotation Zrotation
									JOINT LeftHandThumb2
									{
										OFFSET 4.138618 -2.389435 2.389433
										CHANNELS 3 Xrotation Yrotation Zrotation
										JOINT LeftHandThumb3
										{
											OFFSET 2.726913 -1.574387 1.574386
											CHANNELS 3 Xrotation Yrotation Zrotation
											JOINT LeftHandThumb4
											{
												OFFSET 3.941010 -2.275345 2.275342
												CHANNELS 3 Xrotation Yrotation Zrotation
												End Site
												{
													OFFSET -0.005798 5.087799 0.009903
												}
											}
										}
									}
								}
								JOINT LeftHandIndex1
								{
									OFFSET 24.424698 -1.985611 5.953459
									CHANNELS 3 Xrotation Yrotation Zrotation
									JOINT LeftHandIndex2
									{
										OFFSET 6.426697 0.000000 0.000000
										CHANNELS 3 Xrotation Yrotation Zrotation
										JOINT LeftHandIndex3
										{
											OFFSET 5.337898 0.000000 0.000000
											CHANNELS 3 Xrotation Yrotation Zrotation
											JOINT LeftHandIndex4
											{
												OFFSET 4.409401 0.000000 0.000000
												CHANNELS 3 Xrotation Yrotation Zrotation
												End Site
												{
													OFFSET 0.000000 4.409363 0.014373
												}
											}
										}
									}
								}
								JOINT LeftHandMiddle1
								{
									OFFSET 23.810104 0.000000 0.000000
									CHANNELS 3 Xrotation Yrotation Zrotation
									JOINT LeftHandMiddle2
									{
										OFFSET 7.176498 0.000000 0.000000
										CHANNELS 3 Xrotation Yrotation Zrotation
										JOINT LeftHandMiddle3
										{
											OFFSET 6.774902 0.000000 0.000000
											CHANNELS 3 Xrotation Yrotation Zrotation
											JOINT LeftHandMiddle4
											{
												OFFSET 5.403328 0.000000 0.000000
												CHANNELS 3 Xrotation Yrotation Zrotation
												End Site
												{
													OFFSET -0.027702 5.403244 0.017414
												}
											}
										}
									}
								}
								JOINT LeftHandRing1
								{
									OFFSET 22.908401 -0.839279 -6.020567
									CHANNELS 3 Xrotation Yrotation Zrotation
									JOINT LeftHandRing2
									{
										OFFSET 6.337502 0.000000 0.000000
										CHANNELS 3 Xrotation Yrotation Zrotation
										JOINT LeftHandRing3
										{
											OFFSET 5.779297 0.000000 0.000000
											CHANNELS 3 Xrotation Yrotation Zrotation
											JOINT LeftHandRing4
											{
												OFFSET 4.965698 0.000000 0.000000
												CHANNELS 3 Xrotation Yrotation Zrotation
												End Site
												{
													OFFSET 0.000000 4.965668 0.016186
												}
											}
										}
									}
								}
								JOINT LeftHandPinky1
								{
									OFFSET 20.037003 -1.530319 -10.950146
									CHANNELS 3 Xrotation Yrotation Zrotation
									JOINT LeftHandPinky2
									{
										OFFSET 5.254700 0.000000 0.000000
										CHANNELS 3 Xrotation Yrotation Zrotation
										JOINT LeftHandPinky3
										{
											OFFSET 4.810204 0.000000 0.000000
											CHANNELS 3 Xrotation Yrotation Zrotation
											JOINT LeftHandPinky4
											{
												OFFSET 3.647202 0.000000 0.000000
												CHANNELS 3 Xrotation Yrotation Zrotation
												End Site
												{
													OFFSET 0.000000 3.647186 0.011889
												}
											}
										}
									}
								}
							}
						}
					}
				}
				JOINT RightShoulder
				{
					OFFSET -15.141001 14.495407 -7.737500
					CHANNELS 3 Xrotation Yrotation Zrotation
					JOINT RightArm
					{
						OFFSET -9.308998 -2.777710 0.208500
						CHANNELS 3 Xrotation Yrotation Zrotation
						JOINT RightForeArm
						{
							OFFSET -29.972300 0.000000 0.000000
							CHANNELS 3 Xrotation Yrotation Zrotation
							JOINT RightHand
							{
								OFFSET -26.026505 0.000000 0.000000
								CHANNELS 3 Xrotation Yrotation Zrotation
								JOINT RightHandThumb1
								{
									OFFSET -12.240601 -7.148026 9.207092
									CHANNELS 3 Xrotation Yrotation Zrotation
									JOINT RightHandThumb2
									{
										OFFSET -4.138618 -2.389435 2.389433
										CHANNELS 3 Xrotation Yrotation Zrotation
										JOINT RightHandThumb3
										{
											OFFSET -2.726974 -1.574417 1.574421
											CHANNELS 3 Xrotation Yrotation Zrotation
											JOINT RightHandThumb4
											{
												OFFSET -3.941010 -2.275345 2.275343
												CHANNELS 3 Xrotation Yrotation Zrotation
												End Site
												{
													OFFSET 0.005814 5.087799 0.009927
												}
											}
										}
									}
								}
								JOINT RightHandIndex1
								{
									OFFSET -24.424698 -1.985657 5.953444
									CHANNELS 3 Xrotation Yrotation Zrotation
									JOINT RightHandIndex2
									{
										OFFSET -6.426697 0.000000 0.000000
										CHANNELS 3 Xrotation Yrotation Zrotation
										JOINT RightHandIndex3
										{
											OFFSET -5.337898 0.000000 0.000000
											CHANNELS 3 Xrotation Yrotation Zrotation
											JOINT RightHandIndex4
											{
												OFFSET -4.409401 0.000000 0.000000
												CHANNELS 3 Xrotation Yrotation Zrotation
												End Site
												{
													OFFSET 0.000000 4.409363 0.014408
												}
											}
										}
									}
								}
								JOINT RightHandMiddle1
								{
									OFFSET -23.810097 0.000000 0.000000
									CHANNELS 3 Xrotation Yrotation Zrotation
									JOINT RightHandMiddle2
									{
										OFFSET -7.176498 0.000000 0.000000
										CHANNELS 3 Xrotation Yrotation Zrotation
										JOINT RightHandMiddle3
										{
											OFFSET -6.774902 0.000000 0.000000
											CHANNELS 3 Xrotation Yrotation Zrotation
											JOINT RightHandMiddle4
											{
												OFFSET -5.403328 0.000000 0.000000
												CHANNELS 3 Xrotation Yrotation Zrotation
												End Site
												{
													OFFSET 0.027702 5.403244 0.017457
												}
											}
										}
									}
								}
								JOINT RightHandRing1
								{
									OFFSET -22.908302 -0.839325 -6.020576
									CHANNELS 3 Xrotation Yrotation Zrotation
									JOINT RightHandRing2
									{
										OFFSET -6.337502 0.000000 0.000000
										CHANNELS 3 Xrotation Yrotation Zrotation
										JOINT RightHandRing3
										{
											OFFSET -5.779297 0.000000 0.000000
											CHANNELS 3 Xrotation Yrotation Zrotation
											JOINT RightHandRing4
											{
												OFFSET -4.965698 0.000000 0.000000
												CHANNELS 3 Xrotation Yrotation Zrotation
												End Site
												{
													OFFSET 0.000000 4.965668 0.016226
												}
											}
										}
									}
								}
								JOINT RightHandPinky1
								{
									OFFSET -20.037003 -1.530334 -10.950259
									CHANNELS 3 Xrotation Yrotation Zrotation
									JOINT RightHandPinky2
									{
										OFFSET -5.254700 0.000000 0.000000
										CHANNELS 3 Xrotation Yrotation Zrotation
										JOINT RightHandPinky3
										{
											OFFSET -4.810204 0.000000 0.000000
											CHANNELS 3 Xrotation Yrotation Zrotation
											JOINT RightHandPinky4
											{
												OFFSET -3.647202 0.000000 0.000000
												CHANNELS 3 Xrotation Yrotation Zrotation
												End Site
												{
													OFFSET 0.000000 3.647186 0.011917
												}
											}
										}
									}
								}
							}
						}
					}
				}
			}
		}
	}
	JOINT LeftUpLeg
	{
		OFFSET 15.427100 -6.655098 0.678600
		CHANNELS 3 Xrotation Yrotation Zrotation
		JOINT LeftLeg
		{
			OFFSET 4.081073 -39.591068 13.024000
			CHANNELS 3 Xrotation Yrotation Zrotation
			JOINT LeftFoot
			{
				OFFSET -4.081074 -37.707932 -15.979700
				CHANNELS 3 Xrotation Yrotation Zrotation
				JOINT LeftToeBase
				{
					OFFSET 5.346399 -15.068900 20.645000
					CHANNELS 3 Xrotation Yrotation Zrotation
					JOINT LeftToe_End
					{
						OFFSET 2.754700 0.931300 11.300900
						CHANNELS 3 Xrotation Yrotation Zrotation
						End Site
						{
							OFFSET 0.000000 11.669021 0.000000
						}
					}
				}
			}
		}
	}
	JOINT RightUpLeg
	{
		OFFSET -15.569500 -6.655098 0.678600
		CHANNELS 3 Xrotation Yrotation Zrotation
		JOINT RightLeg
		{
			OFFSET -4.081825 -39.591045 13.023800
			CHANNELS 3 Xrotation Yrotation Zrotation
			JOINT RightFoot
			{
				OFFSET 4.081824 -37.707954 -15.979600
				CHANNELS 3 Xrotation Yrotation Zrotation
				JOINT RightToeBase
				{
					OFFSET -5.346400 -15.068900 20.645000
					CHANNELS 3 Xrotation Yrotation Zrotation
					JOINT RightToe_End
					{
						OFFSET -2.754700 0.931300 11.300900
						CHANNELS 3 Xrotation Yrotation Zrotation
						End Site
						{
							OFFSET 0.000000 11.669021 0.000000
						}
					}
				}
			}
		}
	}
}
MOTION
Frames: 4
Frame Time: 0.033333
-3.637321 87.981461 84.533066 5.371227 126.047180 -4.396218 7.492640 3.964144 0.372432 2.928420 1.242654 0.386632 2.926993 1.244248 0.392663 4.295150 4.936973 -0.791193 4.028417 27.224516 -12.753471 0.000001 -0.000000 -0.000000 0.017929 1.895323 2.504433 -15.178178 -8.208869 -72.827589 -0.000028 -42.269541 -0.000023 23.798090 2.119717 4.914330 -11.991422 -0.404005 -0.854812 -21.366065 16.255951 9.036444 6.051671 26.764731 13.369704 -0.000002 0.000003 0.000002 -0.845864 -2.944271 -13.094560 0.253808 1.855813 -15.574365 0.094708 1.140339 -9.494053 0.000000 -0.000001 0.000000 -0.177804 -0.892876 -7.611442 0.401582 2.321311 -19.627273 0.136024 1.364676 -11.384956 0.000000 -0.000004 -0.000000 0.799177 4.410859 -12.118355 0.122306 1.294640 -10.793460 0.257427 1.868702 -15.685425 -0.000000 -0.000001 -0.000001 1.994569 6.918853 -18.818402 0.322102 -1.973416 -18.034350 0.213426 1.704434 -14.274844 0.000000 0.000002 0.000001 0.370336 -1.687724 4.815463 -8.219079 58.046848 48.960637 -0.000029 110.807983 0.000042 -6.626464 10.945226 -6.645102 10.726251 0.783101 10.622806 -13.247714 -37.628810 -19.288980 22.312654 -29.753827 15.761539 0.000004 -0.000003 0.000002 6.252081 -6.913436 84.235808 9.407678 -6.500376 110.776892 1.748289 -4.614867 41.479520 0.000001 -0.000001 -0.000001 6.919570 -6.960541 86.331597 8.017734 -6.865842 98.875710 3.004683 -5.717594 55.318320 -0.000002 -0.000001 0.000001 5.673598 -6.830884 79.432668 7.579553 -6.919638 95.225876 2.555289 -5.388796 50.716627 0.000001 0.000003 -0.000001 5.056230 -6.686895 74.161893 8.298511 -6.816392 101.232727 2.182573 -5.062172 46.624999 0.000001 -0.000000 -0.000001 -20.732810 12.133572 26.118099 22.054112 -2.218870 0.935937 2.667407 2.012881 -20.022659 -0.000039 0.000003 0.000000 0.000000 -0.000000 -0.000000 -3.502482 -17.460093 -22.529893 22.690215 4.086444 0.024825 -15.428653 -5.359810 19.084802 0.345179 -0.000939 0.249036 0.000000 -0.000000 -0.000000 
-3.644815 87.971344 84.527870 5.389908 126.003808 -4.413541 7.527432 3.963102 0.383082 2.940510 1.242376 0.388894 2.939084 1.243957 0.394933 4.245448 4.958007 -0.816932 4.015976 27.299921 -12.821046 0.000000 0.000000 -0.000000 0.005980 2.057004 2.395901 -15.261665 -8.389192 -72.796976 -0.000010 -42.288693 -0.000017 23.792404 2.381322 5.224461 -12.005746 -0.405174 -0.864613 -21.334347 16.240839 9.014899 6.053615 26.764393 13.366690 -0.000001 0.000001 -0.000002 -0.847453 -2.943022 -13.117494 0.252155 1.849883 -15.523343 0.096694 1.152178 -9.593447 -0.000000 0.000001 0.000000 -0.177051 -0.871861 -7.674784 0.398923 2.313862 -19.561716 0.137408 1.371443 -11.442363 0.000000 0.000001 0.000000 0.807374 4.431275 -12.187117 0.121467 1.290243 -10.756196 0.261263 1.882312 -15.802795 0.000000 0.000000 0.000000 1.999190 6.927112 -18.837289 0.321302 -1.975859 -18.012981 0.216520 1.716460 -14.377825 0.000000 0.000001 -0.000000 0.367397 -1.736781 4.796514 -8.221567 58.198772 48.948967 -0.000015 110.825072 0.000044 -6.548194 10.943801 -6.766574 11.343349 0.476540 10.007862 -13.259805 -37.637064 -19.300851 22.307645 -29.757714 15.756053 0.000001 -0.000005 0.000003 6.257313 -6.913972 84.279220 9.414007 -6.497993 110.832687 1.748289 -4.614897 41.479612 -0.000001 -0.000002 -0.000000 6.917871 -6.959888 86.407583 8.020920 -6.865327 98.902519 3.003723 -5.717148 55.309636 0.000002 0.000002 -0.000001 5.677059 -6.831514 79.456424 7.581598 -6.919443 95.242938 2.555387 -5.388846 50.717556 0.000001 -0.000001 0.000000 5.059809 -6.687894 74.192616 8.304275 -6.815275 101.281119 2.181736 -5.061377 46.615382 0.000004 0.000001 -0.000001 -20.712772 12.153488 26.145237 22.095607 -2.192673 0.910664 2.635956 2.051449 -20.016966 -0.000037 -0.000017 -0.000001 -0.000000 -0.000000 -0.000000 -3.536201 -17.444875 -22.537398 22.714337 4.114431 0.011314 -15.421065 -5.359227 19.100260 0.324694 -0.001002 0.234193 -0.000000 -0.000000 0.000000 
-3.644656 87.931488 84.532829 5.416689 125.915275 -4.407187 7.530443 4.007621 0.335586 2.939823 1.256853 0.374257 2.938421 1.258447 0.380355 4.242372 4.961673 -0.760011 4.051778 27.404899 -12.936613 -0.000001 0.000000 -0.000000 0.005831 2.025931 2.466941 -15.265266 -8.325366 -72.833292 -0.000005 -42.383629 0.000009 23.775200 2.435344 5.164897 -12.033720 -0.410233 -0.886344 -21.287435 16.218494 8.983012 6.054988 26.764108 13.364594 0.000001 0.000001 0.000000 -0.849555 -2.945883 -13.135473 0.251076 1.845969 -15.489699 0.098199 1.161049 -9.668078 0.000001 -0.000002 0.000001 -0.176413 -0.855810 -7.721571 0.396777 2.307751 -19.508146 0.138402 1.376346 -11.483913 0.000000 0.000001 -0.000001 0.812530 4.443722 -12.230991 0.120830 1.286935 -10.728287 0.264280 1.892871 -15.893835 0.000000 0.000000 -0.000000 2.003921 6.937244 -18.849949 0.320771 -1.977515 -17.998648 0.218916 1.725815 -14.458056 0.000000 0.000001 0.000000 0.376174 -1.699922 4.956621 -7.995057 58.179353 48.721642 -0.000086 110.912368 0.000073 -6.604620 10.939615 -6.786310 11.454964 0.440885 9.902749 -13.278282 -37.649669 -19.319006 22.305986 -29.759001 15.754226 0.000002 0.000001 0.000001 6.262112 -6.914453 84.319184 9.419804 -6.495804 110.883893 1.748282 -4.614878 41.479599 0.000002 -0.000000 0.000001 6.916844 -6.959409 86.468323 8.023741 -6.864888 98.926110 3.002557 -5.716503 55.298731 -0.000003 -0.000000 0.000001 5.679493 -6.831972 79.472352 7.583474 -6.919273 95.258449 2.555250 -5.388720 50.715982 0.000001 0.000000 0.000001 5.062650 -6.688704 74.217081 8.309169 -6.814304 101.322407 2.180867 -5.060559 46.605506 0.000003 -0.000001 -0.000001 -20.739927 12.177422 26.168507 22.118244 -2.188450 0.927281 2.623851 1.942446 -20.062292 -0.000068 0.000000 -0.000002 0.000000 0.000000 0.000000 -3.658429 -17.382657 -22.582759 22.875898 4.164888 -0.026310 -15.479669 -5.352885 19.072374 0.355505 -0.001049 0.256458 0.000000 -0.000000 0.000000 
-3.615405 87.887016 84.535591 5.444285 125.783548 -4.367430 7.472468 4.101512 0.213634 2.919933 1.287728 0.335576 2.918569 1.289317 0.341837 4.390364 4.901790 -0.597652 3.926140 27.428339 -13.146222 0.000001 -0.000001 -0.000000 0.033396 1.568738 2.940236 -15.114353 -7.808725 -73.103515 -0.000010 -42.494551 -0.000001 23.760731 2.429263 5.141387 -12.056103 -0.419021 -0.907853 -21.262124 16.206406 8.965781 6.053172 26.764487 13.367372 -0.000001 0.000001 0.000002 -0.852270 -2.952403 -13.150832 0.250602 1.844255 -15.474873 0.099198 1.166927 -9.717446 0.000001 -0.000000 0.000000 -0.176107 -0.847094 -7.749038 0.395107 2.303081 -19.466760 0.139024 1.379372 -11.509436 0.000000 0.000001 -0.000000 0.814801 4.449825 -12.248278 0.120437 1.284825 -10.710516 0.266351 1.900210 -15.956951 0.000000 0.000001 -0.000000 2.008612 6.949080 -18.855975 0.320501 -1.978314 -17.991758 0.220577 1.732200 -14.512591 0.000000 0.000000 0.000000 0.398779 -1.534883 5.319280 -7.501150 57.939211 48.289338 0.000007 111.103921 -0.000010 -6.573206 10.878969 -6.914685 11.383971 0.466690 9.973497 -13.302441 -37.666185 -19.342706 22.307065 -29.758157 15.755424 0.000001 -0.000001 0.000002 6.266384 -6.914860 84.354721 9.425055 -6.493806 110.930318 1.748258 -4.614846 41.479250 -0.000001 -0.000000 0.000001 6.916499 -6.959066 86.512405 8.026106 -6.864521 98.945891 3.001200 -5.715670 55.285549 0.000004 -0.000000 -0.000001 5.680827 -6.832209 79.479203 7.585193 -6.919121 95.272765 2.554872 -5.388371 50.711815 0.000002 0.000001 0.000000 5.064482 -6.689215 74.232927 8.313100 -6.813515 101.355411 2.180077 -5.059813 46.596602 0.000002 -0.000000 0.000001 -20.766533 12.240348 26.192599 22.065350 -2.210071 0.946823 2.640055 1.714796 -20.134325 0.000021 0.000007 0.000006 0.000000 -0.000002 -0.000000 -3.803563 -17.288658 -22.719671 23.127738 3.979020 -0.057252 -15.512765 -5.389730 19.055000 0.372930 -0.000573 0.269172 -0.000000 -0.000000 0.000000 
